<svg id="レイヤー_1" data-name="レイヤー 1" xmlns="http://www.w3.org/2000/svg" viewBox="0 0 160 77.85"><defs><style>.cls-1{opacity:0.87;}</style></defs><title>fujitsu_symbol_mark</title><g class="cls-1"><path d="M76.72,10.68a7.77,7.77,0,0,0-5-1.67,8.1,8.1,0,1,0,0,16.19A7.87,7.87,0,0,0,78,22.38V17.91a9.69,9.69,0,0,1-3.86,3.77,6,6,0,0,1-2.35.5,5,5,0,0,1-5.12-5.06A5.1,5.1,0,0,1,71.76,12a5.17,5.17,0,0,1,3.59,1.49c1,0.94,2.47,2.89,3.18,3.66A10.17,10.17,0,1,0,78,4.24v6c1.41-3.83,3.94-6.89,7.91-6.89a6.93,6.93,0,1,1-4.48,12.23c-1.49-1.17-3.14-3.64-4.69-4.94" transform="translate(-10.73 -0.2)"/><path d="M10.73,27.44H33v6.19s-1.14-2.44-3.55-2.44H19.12V41.88H30.28v5.66s-0.36-1.8-3.05-1.81h-8.1v14.6c0,2.15,2.33,3.43,2.33,3.43H10.87a4.17,4.17,0,0,0,2.22-3.43V31.25A4.87,4.87,0,0,0,10.73,27.44Z" transform="translate(-10.73 -0.2)"/><path d="M66.61,27.46H77.93s-2.53,1.2-2.53,3.16V64.68c0,11.51-11.54,13.4-12.15,13.37,1-.63,5.78-4.72,5.8-13.37V30.62C69,28.77,66.61,27.46,66.61,27.46Z" transform="translate(-10.73 -0.2)"/><path d="M79.52,27.45H90.86s-2.52,1.21-2.52,3.21V60.34c0,2.12,2.52,3.45,2.52,3.45H79.52S82,62.47,82,60.34V30.67C82,28.66,79.52,27.45,79.52,27.45Z" transform="translate(-10.73 -0.2)"/><path d="M93.13,27.45h25L116,34s-0.64-2.77-3-2.77h-5.18V60.33c0,1.84,2.44,3.43,2.44,3.43H99.08s2.41-1.43,2.41-3.43V31.28H95.23c-1.77,0-4.31,3.32-4.31,3.32Z" transform="translate(-10.73 -0.2)"/><path d="M159.8,27.45h10.93s-2.34,1.24-2.34,3.2v22c0,8.93-7.42,11.68-12.55,11.68s-13.1-2.78-13.09-11.68v-22c0-2-2.41-3.2-2.41-3.2h11.25s-2.5,1.2-2.5,3.2v22c0,4.69,3.11,7.75,6.75,7.75s6.42-3.19,6.43-7.75v-22C162.26,28.69,159.8,27.45,159.8,27.45Z" transform="translate(-10.73 -0.2)"/><path d="M53.51,27.45H64.65s-2.37,1.29-2.37,3.24V52.63c0,9-7.76,11.8-12.95,11.8s-13.09-2.86-13.09-11.8V30.7c0-2-2.27-3.24-2.27-3.24H45.21s-2.6,1.28-2.6,3.24V52.63c0,4.65,3.09,7.85,6.74,7.87s6.57-3.27,6.57-7.87V30.7C55.91,28.73,53.51,27.45,53.51,27.45Z" transform="translate(-10.73 -0.2)"/><path d="M137,33.26s-1.58-2.76-6.14-2.77-7,2.39-7.05,5.49c0,3.52,2.63,4.85,6.73,6.81,3.89,1.87,9.75,4.45,9.73,10.95,0,5.83-5.18,10.7-14.45,10.7A37.15,37.15,0,0,1,119,63.5l-2.12-7a13.9,13.9,0,0,0,9,4c3.7,0,8.13-2.29,8.13-6,0-7.1-16.52-5.91-16.52-17.79,0-4.09,2.85-10,12.7-10a31.15,31.15,0,0,1,6.76.94v5.61Z" transform="translate(-10.73 -0.2)"/></g></svg>