<?xml version="1.0" encoding="utf-8"?>
<!-- Generator: Adobe Illustrator 19.2.0, SVG Export Plug-In . SVG Version: 6.00 Build 0)  -->
<svg version="1.1" id="レイヤー_1" xmlns="http://www.w3.org/2000/svg" xmlns:xlink="http://www.w3.org/1999/xlink" x="0px"
	 y="0px" viewBox="0 0 160 77.8" style="enable-background:new 0 0 160 77.8;" xml:space="preserve">
<style type="text/css">
	.st0{opacity:0.87;}
	.st1{fill:#FFFFFF;}
</style>
<title>fujitsu_symbol_mark</title>
<g class="st0">
	<path class="st1" d="M66,10.5c-1.4-1.1-3.2-1.7-5-1.7c-4.5-0.2-8.2,3.3-8.4,7.8c-0.2,4.5,3.3,8.2,7.8,8.4c0.2,0,0.4,0,0.6,0
		c2.4,0.1,4.7-1,6.3-2.8v-4.5c-0.9,1.6-2.2,2.9-3.9,3.8c-0.7,0.3-1.5,0.5-2.3,0.5c-2.8,0.1-5.1-2.1-5.1-4.9c0-0.1,0-0.1,0-0.2
		c0-2.8,2.3-5.1,5.1-5.1c0,0,0,0,0,0c1.3,0,2.6,0.5,3.6,1.5c1,0.9,2.5,2.9,3.2,3.7c3.7,4.2,10.2,4.5,14.4,0.8S86.7,7.6,83,3.4
		c-3.7-4.2-10.2-4.5-14.4-0.8C68.1,3,67.7,3.5,67.3,4v6c1.4-3.8,3.9-6.9,7.9-6.9c3.8,0,6.9,3.1,6.9,6.9S79,17,75.1,17
		c-1.6,0-3.2-0.6-4.4-1.6C69.2,14.2,67.6,11.7,66,10.5"/>
	<path class="st1" d="M0,27.2h22.3v6.2c0,0-1.1-2.4-3.5-2.4H8.4v10.7h11.2v5.7c0,0-0.4-1.8-3-1.8H8.4v14.6c0,2.2,2.3,3.4,2.3,3.4
		H0.1c1.3-0.7,2.1-2,2.2-3.4V31C2.2,29.5,1.4,28.1,0,27.2z"/>
	<path class="st1" d="M55.9,27.3h11.3c0,0-2.5,1.2-2.5,3.2v34.1c0,11.5-11.5,13.4-12.1,13.4c1-0.6,5.8-4.7,5.8-13.4V30.4
		C58.3,28.6,55.9,27.3,55.9,27.3z"/>
	<path class="st1" d="M68.8,27.3h11.3c0,0-2.5,1.2-2.5,3.2v29.7c0,2.1,2.5,3.5,2.5,3.5H68.8c0,0,2.5-1.3,2.5-3.5V30.5
		C71.3,28.5,68.8,27.3,68.8,27.3z"/>
	<path class="st1" d="M82.4,27.3h25l-2.1,6.5c0,0-0.6-2.8-3-2.8h-5.2v29.1c0,1.8,2.4,3.4,2.4,3.4H88.4c0,0,2.4-1.4,2.4-3.4V31.1
		h-6.3c-1.8,0-4.3,3.3-4.3,3.3L82.4,27.3z"/>
	<path class="st1" d="M149.1,27.3H160c0,0-2.3,1.2-2.3,3.2v22c0,8.9-7.4,11.7-12.6,11.7S132,61.4,132,52.5v-22c0-2-2.4-3.2-2.4-3.2
		h11.3c0,0-2.5,1.2-2.5,3.2v22c0,4.7,3.1,7.8,6.8,7.8s6.4-3.2,6.4-7.8v-22C151.5,28.5,149.1,27.3,149.1,27.3z"/>
	<path class="st1" d="M42.8,27.3h11.1c0,0-2.4,1.3-2.4,3.2v21.9c0,9-7.8,11.8-13,11.8s-13.1-2.9-13.1-11.8V30.5c0-2-2.3-3.2-2.3-3.2
		h11.2c0,0-2.6,1.3-2.6,3.2v21.9c0,4.7,3.1,7.8,6.7,7.9s6.6-3.3,6.6-7.9V30.5C45.2,28.5,42.8,27.3,42.8,27.3z"/>
	<path class="st1" d="M126.3,33.1c0,0-1.6-2.8-6.1-2.8s-7,2.4-7.1,5.5c0,3.5,2.6,4.8,6.7,6.8c3.9,1.9,9.8,4.5,9.7,11
		c0,5.8-5.2,10.7-14.4,10.7c-2.3-0.1-4.6-0.4-6.8-0.9l-2.1-7c2.4,2.4,5.6,3.8,9,4c3.7,0,8.1-2.3,8.1-6c0-7.1-16.5-5.9-16.5-17.8
		c0-4.1,2.8-10,12.7-10c2.3,0.1,4.5,0.4,6.8,0.9L126.3,33.1L126.3,33.1z"/>
</g>
</svg>
